<svg width="2048" height="2048" viewBox="0 0 2048 2048" fill="none" xmlns="http://www.w3.org/2000/svg">
<g clip-path="url(#clip0_20_4535)">
<path d="M0 1024V2048H2048V0H0V1024ZM1537.1 1056.2C1535.7 1080.1 1531 1117.3 1526.4 1137.5C1515.2 1186.5 1504.8 1218.4 1487 1259C1482.1 1270.1 1464.5 1304.4 1458.5 1314.5C1449.1 1330.3 1439.5 1345.8 1436.5 1350C1434.8 1352.5 1431.2 1357.6 1428.5 1361.5C1418.2 1376.3 1403.7 1394.9 1394.5 1405C1381.9 1419 1351.2 1448.7 1334.5 1463.2C1323.7 1472.5 1281.7 1502 1279.1 1502C1278.5 1502 1278 1502.4 1278 1502.8C1278 1503.2 1276.5 1504.4 1274.8 1505.4C1273 1506.5 1269.3 1508.8 1266.5 1510.6C1261.9 1513.6 1231.8 1528.9 1220.8 1533.9C1212.7 1537.5 1198.8 1543 1191.5 1545.4C1168.6 1553 1156.7 1556.5 1131.5 1563.1C1116.2 1567.1 1113.7 1567.6 1097 1570.4C1091.8 1571.3 1085.3 1572.5 1082.5 1573C1065.5 1576.3 1021.7 1578.9 984.5 1578.8C960.4 1578.8 726 1579 726 1579C615.6 1579 523.8 1578.7 522.1 1578.4L519 1577.8V479.1L522.3 478.7C524 478.5 1537.5 478.5 1537.5 478.5L1537.1 1056.2ZM1187.3 550.6C1187.6 550.9 1198.6 556.3 1211.7 562.4C1243.7 577.4 1251.9 582.2 1283.5 603.8C1306.9 619.9 1327.4 637.2 1351.1 660.9C1384.2 694.1 1402.5 717.7 1424.8 756.5C1436.2 776.2 1454.8 818 1460.6 837C1462.9 844.5 1462.9 844.5 1462.9 697.9L1463 551.3C1463 551.3 1186.5 549.8 1187.3 550.6ZM667 621V1429.8C629.3 1468.3 592.5 1505 592.5 1505H1007.2L1020.4 1491.8C1037.3 1474.8 1078.8 1434.7 1080.3 1433.9C1081 1433.5 1088.9 1432.7 1097.9 1432C1129.2 1429.8 1153.2 1424.2 1183.5 1412C1203.1 1404.2 1233.8 1386.1 1255.1 1370C1271.1 1357.8 1296.6 1331 1309 1313.4C1310.9 1310.7 1314.7 1305.3 1317.4 1301.5C1335.3 1276 1351 1246.1 1360.1 1220.5C1370.1 1192.2 1376 1168.4 1380.5 1138.7C1384.4 1112.2 1385.1 1101.7 1385.7 1054C1386.5 987.2 1384.2 955.1 1375.8 920C1361.2 858.7 1342.5 817.8 1307.2 770.5C1295.8 755.2 1284.5 742.6 1265.9 724.6C1245.9 705.2 1233.7 695.2 1214 682C1174.9 655.9 1138.2 639.4 1098.5 630.1C1078.3 625.4 1059 622.8 1036.5 621.6C1024.9 621 667 621 667 621ZM1029.5 696.9C1053.9 699.6 1086.4 707.1 1105.5 714.4C1119.7 719.8 1141.2 729.9 1154.5 737.6C1199.8 763.5 1243.8 809.2 1270.2 857.5C1293.5 900.1 1307.8 947.6 1312 995.5C1313.3 1011 1313.3 1057.5 1312 1071.6C1307.3 1121 1291.7 1172.6 1269.5 1211.7C1242.3 1259.4 1211.2 1292.2 1167.5 1319C1158.1 1324.8 1131.6 1337.9 1120.5 1342.3C1092.7 1353.4 1056.9 1360.3 1021.2 1361.7L1004 1362.3C1004 1362.3 1074.1 1429.1 1074.1 1429.4L671 1429.5C671.5 1429.5 744.5 1353.7 744.5 1353.7L744.6 1054.6L745 694.9L882.3 695.3C975.9 695.6 1022.7 696.1 1029.5 696.9ZM818.5 766C818.2 766.6 818.2 884.5 818.6 1028L819.3 1289H888.2C926.2 1289 957 1288.6 956.8 1288.2C956.7 1287.8 952.5 1283.8 947.5 1279.5C936.1 1269.4 940 1273.2 911.6 1245.5C898 1232.3 886.2 1221.1 885.4 1220.7C884.6 1220.3 884 1219.5 884 1219C884 1218.5 915.4 1218 956.8 1217.8C1036.5 1217.3 1037.8 1217.3 1057.1 1211C1107 1194.7 1139.5 1162.1 1158.6 1109.3C1167.4 1085.1 1171 1062.2 1171 1031.3C1171 1006.1 1169.7 995 1164 972.4C1158 948.3 1149.7 930.3 1133.9 907.5C1118.1 884.6 1098 867.7 1071 854.2C1057.7 847.6 1047.7 844.4 1028.5 840.5C1007.6 836.3 1001.8 836 940.5 836L881.5 835.9L891.5 826.8C904.3 815.1 953 766.7 953 765.7C953 764.6 819.2 764.8 818.5 766Z" fill="white"/>
</g>
<defs>
<clipPath id="clip0_20_4535">
<rect width="2048" height="2048" fill="white"/>
</clipPath>
</defs>
</svg>
