<svg width="2048" height="2048" viewBox="0 0 2048 2048" fill="none" xmlns="http://www.w3.org/2000/svg">
<g clip-path="url(#clip0_20_4529)">
<path d="M1537 1054.48L1536.88 1054.62L1464.88 1141.32L1464.73 1141.5H1464.5C1464.19 1141.4 1464.01 1141.09 1464 1141.06C1464 1141.04 1464 1141.02 1464 1141.01C1464 1140.98 1463.99 1140.95 1463.99 1140.91C1463.99 1140.88 1463.99 1140.84 1463.99 1140.81C1463.99 1140.8 1463.99 1140.79 1463.99 1140.79C1463.99 1140.73 1463.99 1140.66 1463.99 1140.58C1463.98 1140.29 1463.98 1139.87 1463.97 1139.31C1463.96 1138.19 1463.95 1136.53 1463.94 1134.36C1463.92 1130.03 1463.89 1123.67 1463.87 1115.59C1463.82 1099.41 1463.77 1076.31 1463.72 1048.58C1463.61 993.126 1463.49 919.188 1463.39 845.251C1463.28 771.313 1463.18 697.376 1463.11 641.922C1463.08 614.196 1463.05 591.09 1463.03 574.917L1463.01 556.143L1463 551.197L1463 550L593 550.7L592.5 1505.5L1004.3 1506L1005.58 1506L1004.64 1506.87L926.838 1578.37L926.695 1578.5H926.5H520H519.5V1578V480.1V479.629L519.971 479.601C521.69 479.5 775.844 479.35 1029.52 479.225C1156.37 479.162 1283.12 479.106 1378.15 479.066C1425.67 479.045 1465.25 479.029 1492.96 479.018L1525.12 479.005L1533.59 479.001L1535.77 479L1536.32 479L1536.45 479H1536.49C1536.5 479 1536.5 479 1536.5 479.5L1536.5 479L1537 479V479.5V1054.3V1054.48ZM1107.98 715.733L1107.8 716.2L1107.98 715.734C1122.51 721.344 1156.04 738.26 1166.28 745.084L1166.28 745.085C1208.94 773.828 1244.4 812.186 1268.94 856.156C1290.37 894.614 1303.69 934.974 1310.1 981.432C1311.2 989.366 1311.97 1006.82 1312.27 1024.65C1312.57 1042.49 1312.4 1060.76 1311.6 1070.34C1307.49 1119.21 1291.27 1173.08 1268.43 1212.85C1253.72 1238.58 1242.09 1254.31 1223.26 1273.85L1222.9 1273.5L1223.26 1273.85C1194.11 1304 1160.24 1326.24 1118.18 1342.96L1118.18 1342.97C1098.33 1350.79 1064.18 1358.1 1036.04 1360.5L1036.04 1360.5C1032.42 1360.8 1012.55 1360.95 984.848 1361.01C957.125 1361.06 921.512 1361.03 886.349 1360.95C851.186 1360.88 816.473 1360.76 790.551 1360.67C777.59 1360.62 766.827 1360.58 759.304 1360.55C755.542 1360.53 752.591 1360.52 750.58 1360.51L748.285 1360.5L747.697 1360.5L747.548 1360.5L747.51 1360.5L747.501 1360.5C747.499 1360.5 747.498 1360.5 747.5 1360L747.498 1360.5L747.003 1360.5L747 1360L745.2 1067V1067L745.5 696L745.5 695.5H746H874.3C951.586 695.5 1008.31 695.9 1017.03 696.501C1049.48 698.804 1081.93 705.713 1107.98 715.733ZM1064.38 1282.02L1064.38 1282.01C1103.69 1272.24 1137.91 1252.59 1166.74 1223.05C1204.26 1184.63 1225.82 1140.73 1236.71 1079.91C1238.7 1068.56 1238.9 1064.4 1239 1032.5C1239 1013.3 1238.82 1001.94 1237.93 992.522C1237.03 983.11 1235.41 975.614 1232.52 964.122C1219.84 913.803 1196.58 871.985 1162.75 838.355C1141.99 817.895 1123.83 805.127 1096.28 791.85C1065.34 776.978 1039.7 769.992 1002.95 766.398C994.781 765.601 948.69 764.975 904.485 764.738C882.392 764.619 860.785 764.597 844.645 764.698C836.575 764.749 829.874 764.831 825.164 764.947C822.809 765.004 820.956 765.071 819.68 765.146C819.04 765.183 818.554 765.222 818.225 765.263C818.173 765.269 818.125 765.276 818.083 765.282C818.083 765.294 818.083 765.306 818.082 765.318C818.077 765.577 818.072 765.96 818.067 766.464C818.057 767.473 818.049 768.962 818.042 770.899C818.028 774.773 818.019 780.439 818.015 787.64C818.007 802.041 818.017 822.582 818.041 847.215C818.088 896.481 818.188 962.112 818.3 1027.72C818.412 1093.34 818.537 1158.93 818.634 1208.12C818.683 1232.72 818.724 1253.21 818.753 1267.56L818.788 1284.21L818.797 1288.59L818.799 1289.6L923.898 1289.2C928.456 1289.18 932.828 1289.17 937.026 1289.16C986.665 1288.99 1011.74 1288.91 1027.4 1288.11C1043.37 1287.3 1049.52 1285.75 1062.02 1282.61C1062.78 1282.42 1063.56 1282.22 1064.38 1282.02ZM0.5 1024V2047.5H2047.5V0.5H0.5V1024Z" fill="white" stroke="black"/>
</g>
<defs>
<clipPath id="clip0_20_4529">
<rect width="2048" height="2048" fill="white"/>
</clipPath>
</defs>
</svg>
