<svg width="1019" height="1101" viewBox="0 0 1019 1101" fill="none" xmlns="http://www.w3.org/2000/svg">
<g clip-path="url(#clip0_20_4521)">
<path d="M1018.1 578.2C1016.7 602.1 1012 639.3 1007.4 659.5C996.2 708.5 985.8 740.4 968 781C963.1 792.1 945.5 826.4 939.5 836.5C930.1 852.3 920.5 867.8 917.5 872C915.8 874.5 912.2 879.6 909.5 883.5C899.2 898.3 884.7 916.9 875.5 927C862.9 941 832.2 970.7 815.5 985.2C804.7 994.5 762.7 1024 760.1 1024C759.5 1024 759 1024.4 759 1024.8C759 1025.2 757.5 1026.4 755.8 1027.4C754 1028.5 750.3 1030.8 747.5 1032.6C742.9 1035.6 712.8 1050.9 701.8 1055.9C693.7 1059.5 679.8 1065 672.5 1067.4C649.6 1075 637.7 1078.5 612.5 1085.1C597.2 1089.1 594.7 1089.6 578 1092.4C572.8 1093.3 566.3 1094.5 563.5 1095C546.5 1098.3 502.7 1100.9 465.5 1100.8C441.4 1100.8 207 1101 207 1101C96.6 1101 4.79998 1100.7 3.09998 1100.4L0 1099.8V1.10001L3.29999 0.700012C4.99999 0.500012 1018.5 0.5 1018.5 0.5L1018.1 578.2ZM668.3 72.6C668.6 72.9 679.6 78.3 692.7 84.4C724.7 99.4 732.9 104.2 764.5 125.8C787.9 141.9 808.4 159.2 832.1 182.9C865.2 216.1 883.5 239.7 905.8 278.5C917.2 298.2 935.8 340 941.6 359C943.9 366.5 943.9 366.5 943.9 219.9L944 73.3C944 73.3 667.5 71.8 668.3 72.6ZM148 143V951.8C110.3 990.3 73.5 1027 73.5 1027H488.2L501.4 1013.8C518.3 996.8 559.8 956.7 561.3 955.9C562 955.5 569.9 954.7 578.9 954C610.2 951.8 634.2 946.2 664.5 934C684.1 926.2 714.8 908.1 736.1 892C752.1 879.8 777.6 853 790 835.4C791.9 832.7 795.7 827.3 798.4 823.5C816.3 798 832 768.1 841.1 742.5C851.1 714.2 857 690.4 861.5 660.7C865.4 634.2 866.1 623.7 866.7 576C867.5 509.2 865.2 477.1 856.8 442C842.2 380.7 823.5 339.8 788.2 292.5C776.8 277.2 765.5 264.6 746.9 246.6C726.9 227.2 714.7 217.2 695 204C655.9 177.9 619.2 161.4 579.5 152.1C559.3 147.4 540 144.8 517.5 143.6C505.9 143 148 143 148 143ZM510.5 218.9C534.9 221.6 567.4 229.1 586.5 236.4C600.7 241.8 622.2 251.9 635.5 259.6C680.8 285.5 724.8 331.2 751.2 379.5C774.5 422.1 788.8 469.6 793 517.5C794.3 533 794.3 579.5 793 593.6C788.3 643 772.7 694.6 750.5 733.7C723.3 781.4 692.2 814.2 648.5 841C639.1 846.8 612.6 859.9 601.5 864.3C573.7 875.4 537.9 882.3 502.2 883.7L485 884.3C485 884.3 555.1 951.1 555.1 951.4L152 951.5C152.5 951.5 225.5 875.7 225.5 875.7L225.6 576.6L226 216.9L363.3 217.3C456.9 217.6 503.7 218.1 510.5 218.9ZM299.5 288C299.2 288.6 299.2 406.5 299.6 550L300.3 811H369.2C407.2 811 438 810.6 437.8 810.2C437.7 809.8 433.5 805.8 428.5 801.5C417.1 791.4 421 795.2 392.6 767.5C379 754.3 367.2 743.1 366.4 742.7C365.6 742.3 365 741.5 365 741C365 740.5 396.4 740 437.8 739.8C517.5 739.3 518.8 739.3 538.1 733C588 716.7 620.5 684.1 639.6 631.3C648.4 607.1 652 584.2 652 553.3C652 528.1 650.7 517 645 494.4C639 470.3 630.7 452.3 614.9 429.5C599.1 406.6 579 389.7 552 376.2C538.7 369.6 528.7 366.4 509.5 362.5C488.6 358.3 482.8 358 421.5 358L362.5 357.9L372.5 348.8C385.3 337.1 434 288.7 434 287.7C434 286.6 300.2 286.8 299.5 288Z" fill="black"/>
</g>
<defs>
<clipPath id="clip0_20_4521">
<rect width="1019" height="1101" fill="white"/>
</clipPath>
</defs>
</svg>
