<svg width="2048" height="2048" viewBox="0 0 2048 2048" fill="none" xmlns="http://www.w3.org/2000/svg">
<path d="M1533.1 1050.7C1531.7 1074.6 1527 1111.8 1522.4 1132C1511.2 1181 1500.8 1212.9 1483 1253.5C1478.1 1264.6 1460.5 1298.9 1454.5 1309C1445.1 1324.8 1435.5 1340.3 1432.5 1344.5C1430.8 1347 1427.2 1352.1 1424.5 1356C1414.2 1370.8 1399.7 1389.4 1390.5 1399.5C1377.9 1413.5 1347.2 1443.2 1330.5 1457.7C1319.7 1467 1277.7 1496.5 1275.1 1496.5C1274.5 1496.5 1274 1496.9 1274 1497.3C1274 1497.7 1272.5 1498.9 1270.8 1499.9C1269 1501 1265.3 1503.3 1262.5 1505.1C1257.9 1508.1 1227.8 1523.4 1216.8 1528.4C1208.7 1532 1194.8 1537.5 1187.5 1539.9C1164.6 1547.5 1152.7 1551 1127.5 1557.6C1112.2 1561.6 1109.7 1562.1 1093 1564.9C1087.8 1565.8 1081.3 1567 1078.5 1567.5C1061.5 1570.8 1017.7 1573.4 980.5 1573.3C956.4 1573.3 922.5 1573.5 922.5 1573.5C812.1 1573.5 516 1573.5 516 1573.5V475.598L1532.5 475L1533.1 1050.7ZM1183.3 545.1C1183.6 545.4 1194.6 550.8 1207.7 556.9C1239.7 571.9 1247.9 576.7 1279.5 598.3C1302.9 614.4 1323.4 631.7 1347.1 655.4C1380.2 688.6 1398.5 712.2 1420.8 751C1432.2 770.7 1450.8 812.5 1456.6 831.5C1458.9 839 1458.9 839 1458.9 692.4L1459 545.8C1459 545.8 1182.5 544.3 1183.3 545.1ZM663 615.5V1424.3C625.3 1462.8 588 1501.5 588 1501.5L1000 1502L1078.5 1424.3H1093C1124.3 1422.1 1149.2 1418.7 1179.5 1406.5C1199.1 1398.7 1229.8 1380.6 1251.1 1364.5C1267.1 1352.3 1292.6 1325.5 1305 1307.9C1306.9 1305.2 1310.7 1299.8 1313.4 1296C1331.3 1270.5 1347 1240.6 1356.1 1215C1366.1 1186.7 1372 1162.9 1376.5 1133.2C1380.4 1106.7 1381.1 1096.2 1381.7 1048.5C1382.5 981.7 1380.2 949.6 1371.8 914.5C1357.2 853.2 1338.5 812.3 1303.2 765C1291.8 749.7 1280.5 737.1 1261.9 719.1C1241.9 699.7 1229.7 689.7 1210 676.5C1170.9 650.4 1134.2 633.9 1094.5 624.6C1074.3 619.9 1055 617.3 1032.5 616.1C1020.9 615.5 663 615.5 663 615.5ZM979 754.5C1003.4 757.2 1003.4 745.7 1022.5 753C1036.7 758.4 1108.7 784.3 1122 792C1167.3 817.9 1232.5 912.5 1235.5 993L1237.5 1025.8L1235.5 1053.5C1233.5 1098.5 1211 1175 1171 1211C1122 1260.5 1133 1259 1053.1 1280C1025.3 1291.1 954 1285 954 1285L1000 1356.8C1000 1356.8 1078.5 1424 1078.5 1424.3H663C663.5 1424.3 743.5 1355.5 743.5 1355.5L839.5 982L949 760.2C949 760.2 972.2 753.7 979 754.5ZM949 760.2L839.5 982L743.5 1355.5L1000 1356.8C1000 1356.8 954.2 1285.4 954 1285C953.9 1284.6 948.5 1278.3 943.5 1274C932.1 1263.9 936 1267.7 907.6 1240C894 1226.8 882.2 1215.6 881.4 1215.2C880.6 1214.8 880 1214 880 1213.5C880 1213 911.4 1212.5 952.8 1212.3C1032.5 1211.8 1033.8 1211.8 1053.1 1205.5C1103 1189.2 1135.5 1156.6 1154.6 1103.8C1163.4 1079.6 1167 1056.7 1167 1025.8C1167 1000.6 1165.7 989.5 1160 966.9C1154 942.8 1145.7 924.8 1129.9 902C1114.1 879.1 1094 862.2 1067 848.7C1053.7 842.1 1043.7 838.9 1024.5 835C1003.6 830.8 997.8 830.5 936.5 830.5L877.5 830.4L887.5 821.3C900.3 809.6 949 761.2 949 760.2Z" fill="black"/>
<path d="M1532.5 1049.8L1460.5 1136.5C1460.2 1136.5 1459.5 545 1459.5 545L588.5 545.7L588 1501.5L1000.3 1502L922.5 1573.5H516V475.6C519.4 475.4 1532.5 475 1532.5 475V1049.8ZM1013 692.5C1045.4 694.8 1077.8 701.7 1103.8 711.7C1118.3 717.3 1151.8 734.2 1162 741C1204.6 769.7 1240 808 1264.5 851.9C1285.9 890.3 1299.2 930.6 1305.6 977C1307.8 992.8 1308.7 1046.7 1307.1 1065.8C1303 1114.6 1286.8 1168.4 1264 1208.1C1249.3 1233.8 1237.7 1249.5 1218.9 1269C1189.8 1299.1 1156 1321.3 1114 1338C1094.2 1345.8 1060.1 1353.1 1032 1355.5C1017.6 1356.7 743.5 1355.5 743.5 1355.5L741.7 1062.5L742 691.5H870.3C947.6 691.5 1004.3 691.9 1013 692.5ZM813.6 760.4C813.2 761 814.3 1285.6 814.3 1285.6L919.9 1285.2C1036.8 1284.8 1032.2 1285.1 1060.5 1278C1099.9 1268.2 1134.2 1248.5 1163.1 1218.9C1200.7 1180.4 1222.3 1136.4 1233.2 1075.5C1235.2 1064.1 1235.4 1059.9 1235.5 1028C1235.5 989.6 1234.8 982.5 1229 959.5C1216.3 909.1 1193 867.2 1159.1 833.5C1138.3 813 1120.1 800.2 1092.5 786.9C1061.5 772 1035.8 765 999 761.4C982.6 759.8 814.5 758.9 813.6 760.4Z" fill="white"/>
<path d="M1532.5 1049.8L1460.5 1136.5C1460.2 1136.5 1459.5 545 1459.5 545L588.5 545.7L588 1501.5L1000.3 1502L922.5 1573.5H516V475.6C519.4 475.4 1532.5 475 1532.5 475V1049.8ZM1013 692.5C1045.4 694.8 1077.8 701.7 1103.8 711.7C1118.3 717.3 1151.8 734.2 1162 741C1204.6 769.7 1240 808 1264.5 851.9C1285.9 890.3 1299.2 930.6 1305.6 977C1307.8 992.8 1308.7 1046.7 1307.1 1065.8C1303 1114.6 1286.8 1168.4 1264 1208.1C1249.3 1233.8 1237.7 1249.5 1218.9 1269C1189.8 1299.1 1156 1321.3 1114 1338C1094.2 1345.8 1060.1 1353.1 1032 1355.5C1017.6 1356.7 743.5 1355.5 743.5 1355.5L741.7 1062.5L742 691.5H870.3C947.6 691.5 1004.3 691.9 1013 692.5ZM813.6 760.4C813.2 761 814.3 1285.6 814.3 1285.6L919.9 1285.2C1036.8 1284.8 1032.2 1285.1 1060.5 1278C1099.9 1268.2 1134.2 1248.5 1163.1 1218.9C1200.7 1180.4 1222.3 1136.4 1233.2 1075.5C1235.2 1064.1 1235.4 1059.9 1235.5 1028C1235.5 989.6 1234.8 982.5 1229 959.5C1216.3 909.1 1193 867.2 1159.1 833.5C1138.3 813 1120.1 800.2 1092.5 786.9C1061.5 772 1035.8 765 999 761.4C982.6 759.8 814.5 758.9 813.6 760.4Z" fill="white"/>
</svg>
