<svg width="1017" height="1099" viewBox="0 0 1017 1099" fill="none" xmlns="http://www.w3.org/2000/svg">
<g clip-path="url(#clip0_20_4523)">
<path d="M496.966 217.999C488.288 217.4 431.614 217 354.3 217H226.5L226.2 587.497L226.2 587.5L227.997 880.002L228.289 880.003L230.584 880.013C232.595 880.022 235.546 880.034 239.308 880.049C246.831 880.08 257.594 880.122 270.555 880.169C296.477 880.262 331.189 880.375 366.351 880.45C401.513 880.525 437.125 880.562 464.846 880.506C492.586 880.45 512.385 880.3 515.958 880.002C544.024 877.605 578.074 870.312 597.817 862.535C639.756 845.859 673.494 823.697 702.54 793.653C721.309 774.186 732.884 758.52 747.566 732.852L747.566 732.851L587.8 236.7L587.621 237.167C561.673 227.187 529.323 220.296 496.966 217.999ZM496.966 217.999L497 217.5L496.965 217.999C496.965 217.999 496.965 217.999 496.966 217.999ZM943.5 69.5L943.999 69.4996L944 69.9994L943.5 70C944 69.9994 944 70.0017 944 70.0062L944 70.0264L944 70.1072L944 70.4281L944.002 71.6962L944.008 76.6422L944.031 95.4154C944.05 111.589 944.079 134.695 944.114 162.421C944.184 217.874 944.281 291.812 944.388 365.749C944.494 439.687 944.609 513.624 944.717 569.077C944.771 596.804 944.823 619.909 944.871 636.083C944.895 644.169 944.918 650.523 944.939 654.855C944.95 657.021 944.961 658.681 944.971 659.799C944.972 659.921 944.973 660.037 944.974 660.147L1016 574.619V0.500244H1015.77L1013.59 0.501099L1005.12 0.504517L972.962 0.517578C945.253 0.528931 905.666 0.545288 858.15 0.565674C763.119 0.606201 636.375 0.662476 509.525 0.724976C382.675 0.787476 255.719 0.856201 160.263 0.921875C112.535 0.954712 72.6817 0.986694 44.6544 1.01685C30.6408 1.03186 19.5837 1.04639 11.977 1.0603C8.17358 1.06726 5.23298 1.0741 3.21677 1.08069C2.2086 1.08398 1.43192 1.08728 0.894175 1.09045C0.743913 1.09131 0.612488 1.09229 0.5 1.09314V1098H406.305L483.019 1027.5L71.9994 1027L71.4997 1027L71.5 1026.5L72 70.6997L72.0003 70.2003L72.4996 70.2L943.5 69.5ZM645.723 266.416C645.722 266.416 645.721 266.415 645.721 266.415L646 266L645.723 266.416ZM298.302 811.1L297.801 811.102L297.8 810.601L298.3 810.6C297.8 810.601 297.8 810.599 297.8 810.595L297.8 810.577L297.8 810.505L297.799 810.221L297.797 809.096L297.788 804.709L297.754 788.058C297.724 773.713 297.683 753.218 297.634 728.623C297.538 679.432 297.413 613.838 297.3 548.226C297.188 482.613 297.088 416.982 297.041 367.716C297.017 343.083 297.007 322.542 297.015 308.139C297.019 300.938 297.028 295.271 297.042 291.395C297.049 289.458 297.057 287.966 297.067 286.955C297.072 286.449 297.077 286.062 297.082 285.797C297.084 285.718 297.086 285.649 297.088 285.591C297.089 285.552 297.09 285.517 297.091 285.488C297.093 285.452 297.095 285.418 297.097 285.39C297.098 285.375 297.101 285.351 297.103 285.336C297.107 285.31 297.136 285.219 297.173 285.144L297.171 285.143C297.227 285.05 297.298 284.995 297.339 284.968C297.384 284.938 297.426 284.918 297.458 284.904C297.522 284.877 297.59 284.859 297.649 284.845C297.77 284.816 297.925 284.792 298.104 284.77C298.465 284.726 298.976 284.685 299.621 284.647C300.914 284.571 302.781 284.505 305.14 284.447C309.859 284.331 316.567 284.249 324.639 284.198C340.784 284.097 362.395 284.119 384.49 284.238C428.66 284.475 474.819 285.099 483.049 285.902C519.902 289.508 545.66 296.522 576.717 311.449L576.717 311.45C604.365 324.773 622.611 337.604 643.451 358.144L643.452 358.145C677.422 391.915 700.765 433.897 713.485 484.378C716.387 495.886 718.019 503.44 718.923 512.928C719.825 522.405 720 533.803 720 553V553.002C719.9 584.897 719.701 589.138 717.693 600.586L717.692 600.588C706.777 661.572 685.137 705.668 647.458 744.249C618.494 773.915 584.112 793.663 544.621 803.485C543.809 803.689 543.025 803.886 542.264 804.078C529.744 807.23 523.523 808.796 507.45 809.612C491.766 810.408 466.67 810.491 417.069 810.656C412.859 810.67 408.473 810.684 403.902 810.7L298.302 811.1Z" fill="white" stroke="black"/>
</g>
<defs>
<clipPath id="clip0_20_4523">
<rect width="1017" height="1099" fill="white"/>
</clipPath>
</defs>
</svg>
