<svg width="2000" height="2000" viewBox="0 0 2000 2000" fill="none" xmlns="http://www.w3.org/2000/svg">
<rect width="2000" height="2000" fill="black"/>
<path d="M1509.1 1027.7C1507.7 1051.6 1503 1088.8 1498.4 1109C1487.2 1158 1476.8 1189.9 1459 1230.5C1454.1 1241.6 1436.5 1275.9 1430.5 1286C1421.1 1301.8 1411.5 1317.3 1408.5 1321.5C1406.8 1324 1403.2 1329.1 1400.5 1333C1390.2 1347.8 1375.7 1366.4 1366.5 1376.5C1353.9 1390.5 1323.2 1420.2 1306.5 1434.7C1295.7 1444 1253.7 1473.5 1251.1 1473.5C1250.5 1473.5 1250 1473.9 1250 1474.3C1250 1474.7 1248.5 1475.9 1246.8 1476.9C1245 1478 1241.3 1480.3 1238.5 1482.1C1233.9 1485.1 1203.8 1500.4 1192.8 1505.4C1184.7 1509 1170.8 1514.5 1163.5 1516.9C1140.6 1524.5 1128.7 1528 1103.5 1534.6C1088.2 1538.6 1085.7 1539.1 1069 1541.9C1063.8 1542.8 1057.3 1544 1054.5 1544.5C1037.5 1547.8 993.7 1550.4 956.5 1550.3C932.4 1550.3 698 1550.5 698 1550.5C587.6 1550.5 495.8 1550.2 494.1 1549.9L491 1549.3V450.6L494.3 450.2C496 450 1509.5 450 1509.5 450L1509.1 1027.7ZM1159.3 522.1C1159.6 522.4 1170.6 527.8 1183.7 533.9C1215.7 548.9 1223.9 553.7 1255.5 575.3C1278.9 591.4 1299.4 608.7 1323.1 632.4C1356.2 665.6 1374.5 689.2 1396.8 728C1408.2 747.7 1426.8 789.5 1432.6 808.5C1434.9 816 1434.9 816 1434.9 669.4L1435 522.8C1435 522.8 1158.5 521.3 1159.3 522.1ZM639 592.5V1401.3C601.3 1439.8 564.5 1476.5 564.5 1476.5H979.2L992.4 1463.3C1009.3 1446.3 1050.8 1406.2 1052.3 1405.4C1053 1405 1060.9 1404.2 1069.9 1403.5C1101.2 1401.3 1125.2 1395.7 1155.5 1383.5C1175.1 1375.7 1205.8 1357.6 1227.1 1341.5C1243.1 1329.3 1268.6 1302.5 1281 1284.9C1282.9 1282.2 1286.7 1276.8 1289.4 1273C1307.3 1247.5 1323 1217.6 1332.1 1192C1342.1 1163.7 1348 1139.9 1352.5 1110.2C1356.4 1083.7 1357.1 1073.2 1357.7 1025.5C1358.5 958.7 1356.2 926.6 1347.8 891.5C1333.2 830.2 1314.5 789.3 1279.2 742C1267.8 726.7 1256.5 714.1 1237.9 696.1C1217.9 676.7 1205.7 666.7 1186 653.5C1146.9 627.4 1110.2 610.9 1070.5 601.6C1050.3 596.9 1031 594.3 1008.5 593.1C996.9 592.5 639 592.5 639 592.5ZM1001.5 668.4C1025.9 671.1 1058.4 678.6 1077.5 685.9C1091.7 691.3 1113.2 701.4 1126.5 709.1C1171.8 735 1215.8 780.7 1242.2 829C1265.5 871.6 1279.8 919.1 1284 967C1285.3 982.5 1285.3 1029 1284 1043.1C1279.3 1092.5 1263.7 1144.1 1241.5 1183.2C1214.3 1230.9 1183.2 1263.7 1139.5 1290.5C1130.1 1296.3 1103.6 1309.4 1092.5 1313.8C1064.7 1324.9 1028.9 1331.8 993.2 1333.2L976 1333.8C976 1333.8 1046.1 1400.6 1046.1 1400.9L643 1401C643.5 1401 716.5 1325.2 716.5 1325.2L716.6 1026.1L717 666.4L854.3 666.8C947.9 667.1 994.7 667.6 1001.5 668.4ZM790.5 737.5C790.2 738.1 790.2 856 790.6 999.5L791.3 1260.5H860.2C898.2 1260.5 929 1260.1 928.8 1259.7C928.7 1259.3 924.5 1255.3 919.5 1251C908.1 1240.9 912 1244.7 883.6 1217C870 1203.8 858.2 1192.6 857.4 1192.2C856.6 1191.8 856 1191 856 1190.5C856 1190 887.4 1189.5 928.8 1189.3C1008.5 1188.8 1009.8 1188.8 1029.1 1182.5C1079 1166.2 1111.5 1133.6 1130.6 1080.8C1139.4 1056.6 1143 1033.7 1143 1002.8C1143 977.6 1141.7 966.5 1136 943.9C1130 919.8 1121.7 901.8 1105.9 879C1090.1 856.1 1070 839.2 1043 825.7C1029.7 819.1 1019.7 815.9 1000.5 812C979.6 807.8 973.8 807.5 912.5 807.5L853.5 807.4L863.5 798.3C876.3 786.6 925 738.2 925 737.2C925 736.1 791.2 736.3 790.5 737.5Z" fill="white"/>
</svg>
